{"title":"Embarrassing Bodies - S07E01 - Dan &amp; Jiya &amp; Sennet","uid":15978481,"size":1164224542,"categoryP":"video","categoryS":"tv_shows","magnet":"?xt=urn:btih:1825818df1e4cd59f6cb028eb40d53fe866aa811&amp;dn=Embarrassing+Bodies+-+S07E01+-+Dan+%26amp%3B+Jiya+%26amp%3B+Sennet&amp;tr=udp%3A%2F%2Ftracker.leechers-paradise.org%3A6969&amp;tr=udp%3A%2F%2Fzer0day.ch%3A1337&amp;tr=udp%3A%2F%2Fopen.demonii.com%3A1337&amp;tr=udp%3A%2F%2Ftracker.coppersurfer.tk%3A6969&amp;tr=udp%3A%2F%2Fexodus.desync.com%3A6969","seeders":2,"leechers":4,"uploader":"Bullrout","files":1,"time":1475870642,"description":"Embarrassing Bodies - S07E01 - Dan &amp; Jiya &amp; Sennet\r\n\r\nYoung dad Dan comes to meet Dr Christian in the clinic with a hole in his head and looking for help to rebuild his face. Meanwhile, Jaya wants to know if Dr Dawn can help her find a voice, after an unusual medical condition leaves her with a distorted voice box.\r\n\r\nComplete name                            : Embarrassing Bodies - S07E01 - Dan &amp; Jiya &amp; Sennet.mkv\r\nFormat                                   : Matroska\r\nFormat version                           : Version 4 / Version 2\r\nFile size                                : 1.08 GiB\r\nDuration                                 : 46 min 47 s\r\nOverall bit rate mode                    : Variable\r\nOverall bit rate                         : 3 317 kb/s\r\nEncoded date                             : UTC 2016-10-06 03:21:05\r\nWriting application                      : mkvmerge v9.4.2 ('So High') 64bit\r\nWriting library                          : libebml v1.3.4 + libmatroska v1.4.5\r\n\r\nVideo\r\nID                                       : 2\r\nFormat                                   : AVC\r\nFormat/Info                              : Advanced Video Codec\r\nFormat profile                           :   \r\nFormat settings, CABAC                   : Yes\r\nFormat settings, ReFrames                : 3 frames\r\nCodec ID                                 : V_MPEG4/ISO/AVC\r\nDuration                                 : 46 min 47 s\r\nBit rate mode                            : Variable\r\nBit rate                                 : 2 931 kb/s\r\nMaximum bit rate                         : 3 000 kb/s\r\nWidth                                    : 1 280 pixels\r\nHeight                                   : 720 pixels\r\nDisplay aspect ratio                     : 16:9\r\nFrame rate mode                          : Constant\r\nFrame rate                               : 25.000 FPS\r\nStandard                                 : PAL\r\nColor space                              : YUV\r\nChroma subsampling                       : 4:2:0\r\nBit depth                                : 8 bits\r\nScan type                                : Progressive\r\nBits/(Pixel*Frame)                       : 0.127\r\nStream size                              : 981 MiB (88%)\r\nWriting library                          : x264 core 112\r\nDefault                                  : Yes\r\nForced                                   : No\r\nColor range                              : Limited\r\nColor primaries                          : BT.709\r\nTransfer characteristics                 : BT.709\r\nMatrix coefficients                      : BT.709\r\n\r\nAudio\r\nID                                       : 1\r\nFormat                                   : AC-3\r\nFormat/Info                              : Audio Coding 3\r\nMode extension                           : CM (complete main)\r\nFormat settings, Endianness              : Big\r\nCodec ID                                 : A_AC3\r\nDuration                                 : 46 min 47 s\r\nBit rate mode                            : Constant\r\nBit rate                                 : 384 kb/s\r\nChannel(s)                               : 6 channels\r\nChannel positions                        : Front: L C R, Side: L R, LFE\r\nSampling rate                            : 48.0 kHz\r\nFrame rate                               : 31.250 FPS (1536 spf)\r\nCompression mode                         : Lossy\r\nStream size                              : 129 MiB (12%)\r\nDefault                                  : Yes\r\nForced                                   : No","torrent":{"xt":"urn:btih:1825818df1e4cd59f6cb028eb40d53fe866aa811","amp;dn":"Embarrassing+Bodies+-+S07E01+-+Dan+%26amp%3B+Jiya+%26amp%3B+Sennet","amp;tr":["udp%3A%2F%2Ftracker.leechers-paradise.org%3A6969","udp%3A%2F%2Fzer0day.ch%3A1337","udp%3A%2F%2Fopen.demonii.com%3A1337","udp%3A%2F%2Ftracker.coppersurfer.tk%3A6969","udp%3A%2F%2Fexodus.desync.com%3A6969"],"infoHash":"1825818df1e4cd59f6cb028eb40d53fe866aa811","infoHashBuffer":{"type":"Buffer","data":[24,37,129,141,241,228,205,89,246,203,2,142,180,13,83,254,134,106,168,17]},"announce":[],"urlList":[]}}